<mxfile host="app.diagrams.net" modified="2023-03-22T20:48:06.609Z" agent="5.0 (Windows NT 10.0; Win64; x64) AppleWebKit/537.36 (KHTML, like Gecko) Chrome/111.0.0.0 Safari/537.36" etag="s-pyTWkn770LcKKl9RrZ" version="21.0.10" type="github">
  <diagram name="Page-1" id="Bsl5lPC-2X11TPhq04dT">
    <mxGraphModel dx="1434" dy="756" grid="1" gridSize="10" guides="1" tooltips="1" connect="1" arrows="1" fold="1" page="1" pageScale="1" pageWidth="850" pageHeight="1100" math="0" shadow="0">
      <root>
        <mxCell id="0" />
        <mxCell id="1" parent="0" />
        <mxCell id="jgPFJxFQJXjKani0BEZ3-1" value="" style="shape=image;verticalLabelPosition=bottom;labelBackgroundColor=default;verticalAlign=top;aspect=fixed;imageAspect=0;image=data:image/png,iVBORw0KGgoAAAANSUhEUgAAAgAAAAIACAYAAAD0eNT6AAAACXBIWXMAAA7DAAAOwwHHb6hkAAAAGXRFWHRTb2Z0d2FyZQB3d3cuaW5rc2NhcGUub3Jnm+48GgAAIABJREFUeJzs3XmYFNW5x/HvWz0zgMCwDpsCCi64G28STdwX3COJCy6JC4vgFjUucbkaJ1HjgoKYxAioGPeMcSFGo6Kihhi9WdyiQcGwisCw7zPTXe/9Y5xIVKCrurpPVdf7eZ5+7pOku+vH3Jk+vz516hQYY4wxxhhjjDHGGGOMMcYYY4wxxhhjjDHGGGOMMcYYY4wxxhhjjDHGGGOMMcYYY4wxxhhjjDGmiMR1AGOMKWtTtIJ2HAQciPANYFugK9AeWAMsA2agvA28QhMv8G1Z5y6wSQsrAMYYUwz/p73xuAg4neYBP1+rEB5DuI095YMipTPGCoAxxkTqDa2mgmtQLgCqCngnRbkfuIJvyoKI0hnzH1YAjDEmKv+n30B4BOgf4buuQBnBN6Uuwvc0Bs91AGOMKQtv6vcQXiPawR+gA8Kj/FVrI35fk3JWAIwxplB/1RF4/A5oXaQjCHAtf9NRRXp/k0J2CsAYYwrxVx0GOp6SfaHSMXwjc3FpjmXKmRUAY4wJ600dhpRy8P+M6hj2shJgCmMFwBhjwnA1+LewEmAKZAXAGGOCcj34t7ASYApgBcAYY4KIy+DfwkqACckKgDHG5OsNHYHoXcTts1P0Vr6Zucx1DJMs8folNsaYuHqz1Kv9g5Ir2Etudp3CJIcVAGOM2ZzYD/4AKCKD+KY87TqISQYrAMYYsylxnfb/aotAdmIvWeI6iIm/OLdZY4xxK1mDP0A38K93HcIkQ1J+qY0xprTe1GFo7Kf9v0qOnOzAPvKx6yAm3pL2i22MMcX3Rm4E6k8A9UBJ2CNDxr+gOD8YU05sBsAYYzb0ZnYYKkn85v85oZ6MtyVflybXUUx8JfcX3BhjovZGbgQqE0j6Z6NSQ1N2H9cxTLwl+5fcGGOi8kZuBMpdKOJ+Fj+Kh7d/5D8jU1asABhjzOvZYSi/ppxOi4rs5jqCiTcrAMaYdHsjNwIpg2n/LxLt7zqCibfy+oU3xpggyvGbfwuls+sIJt6sABhj0qlcv/l/rpXrACbeKlwHMMaYkvtLdjh+mX7z/9xq1wFMvJVr8zXGmK/2em5E4q/zz4sudJ3AxFuZ/wEYY8wGXs+NAJK0t38BZLrrBCbe7BSAMSYd/pIdjmq5T/t/TuRN1xFMvFkBMMaUv9dzI/ATdVe/CHhTXCcw8WanAIwx5W1qyr75AyDv8G2Z5jqFiTcrAMaY8vV6biRCChb8fck9rgOY+EtRIzbGpMrruZHp++YPQD2tMlvzdVnrOoiJt7S1YmNMGjRP+99J+gZ/ELnaBn+TD1sEaIwpL1NzI0F/jaZw8IepfOLZ9L/JSxr/QIwx5apl8E/nZ9ticpk9OUDmug5iksFmAIwx5WFqdjikdNof1uHpIPa1wd/kz9YAGGOSb2puJKRytT/AekS/y7crX3cdxCRLGpuyMaacTM0OB8aRzsG/AeF49ql4xnUQkzwZ1wGMMSa01xrTPfirHM9+NvibcGwGwBiTTK81Dkck3YP//jb4m/CsABhjkscGfxv8TcGsABhjksUGfxv8TSTS+AdkjEmqVxtHgoxH8VBI2WM9PscGHvxVPV5t2DXQa0wqWAEwxiTDq9kzEEnrJj/rUQZxQOULgV6l6jE1Nx7x3uSVpoFFymYSKo1/SMaYpPlT9nuo1pHOzcsaIMS0v6rwp9yvQM8p6H1M2bICYIyJt1eaBuLxNNDKdRQHohr8C3s/U5asABhj4mtq49748jLQxnUUBwqb9lcdtpFnrMNnEAdWTi48okkyKwDGmHh6SftSkX0T6O46igMNSAHf/PVL3/yjeX9TVmwRoDEmfqZqeyqyv8cG//zlP/gDtEL1cV7LHh0uoikHVgCMMfGi6pFrfBR0N9fX3Tl4rIcQl/oBvJq9BvXPCXCsVqj/mF0dkF5WAIwx8fJa9hqQo1zHcKAB8U4IfM6/hVfxa+C9gK9qg+jTNhOQTrYGwBgTH1OaDkT0RdJ3o7IGfO94Di7wnPxrWoPf9BIQdOOfaI5vEsUKgDEmHl7U7lQ0vgXS03WUEot28LUSYPJkpwCMMe6pChVND6Zw8F+PyLGRDrr7Sz1e5SEEPx3QCs/WBKSJFQBjjHuvNp0DHOo6Rok14Bdwzn9TwpeANqBP87KtCUgDOwVgjHFryrqtkcy7QHvXUUqoNNPtdjrAbILNABhj3FEVyIxHae/+CrySPUo3uLbMBCjvBczYCvEft5mA8mYFwBjjzitNQ4E0nXNuQEv8zXp/qScTck2AlYCyZqcAjDFu/Ek7kW36EKhxHaVESj/4b+g1rSEX8nSAy9ymaGwGwBjjRrbpOmzwLx2bCTBfYDMAxpjSm9K4B6p/Ix0b/qxHdRCHtI5+tX8Yr2kNTY0vIYFnAtbh6yAObW13ESwTNgNgjHHhFtIx+DeAnhCbwR+aZwIqq5oXBgbTBk+e5uX1NhNQJmwGwBhTWi827Yfnv+Y6Rgk0gB7Pwa3jee48/ExAvP9dJm82A2CMKS0vd73rCCUQ/0Ey/ExAK5DHbSYg+awAGGNK5+X1R4Ps7zpGka1H9dhYD/4tCisBj/Hi+jRdwll2rAAYY0pH5X9jsBFPcTf5ids5/83ZsAQE+7e2QWxNQJJZATDGlMZLTfsD33Ido4gakJhP+29MSwkIc4mg2umApLICYIwpEf8y1wmKKLmDfwsrAaljVwEYY4pvSsMAfN6nPL90JH/w31DL1QFhdgwsp59DCpTjH6MxJm58vQDFi8E5+ujP+ftlNujtL/U0hFoT0ApfHmeyzQQkhc0AGGOK63Vtw9rG+UBH11Ei1oDq8Qwso8F/Q89qDVUhZwLK+edSRmwGwBhTXOvWnwza0fVX9Ygf5T/IHSX1NDYeAvpewJ9NKwSbCUgAKwDGmOJS7yzXESLWgFLeg3+Lo9rX09gU8gZCVgLizk4BGGOK5+X1O+AzzXWMCK1HiM+NfUrl2VU1VFWGOR2wDrAbCMWUzQAYY4onJye7n62P7NGAn8LBHz6fCQizWZAyyXYMjCcrAMaYItLBrhNERFEdzmEpHPxbHNW+nqZQpwPaoDxtpwPixwqAMaY4nmvcHdjJdYxICJdyWJsHXcdwLnwJaAW2JiBurAAYY4ojkzvRdYRICGM5tPVo1zFio7ASYDcQihErAMaY4lA5Ogbn7Qt9vMbUVhcH+nfXqscLDdfw7KqaQK9LkpYSEGZNgM8knrcSEAd2FYAxJnrPremJl/mEZH/GrMFnD45oPSPvV6gKLzT8CuEcYBqV2YM4qN2C4kV07NlVNVSEujqgAUnJpZQxZjMAxpjoiXcUyR78QfXCAgZ/gAE0VUxhyuoexQkYA0e1rycb8nSA2poA16wAGGOiJ3KE6wgFepbD29yT97NVhckNEzYY/FsMoKnihbI/HRC+BDxmpwPcsQJgjImWqoAe7DpGAbJ4/CjQKyY33AoM28j/uisVlS9ZCfhKbRBbE+BKsqfojDHx83zDLuAHHQjiZAKHtxmR97OfW3sJIrfm8cz3yGUP4aj29eGjxdyzq2rIVITcMVAGcbjtGFhKNgNgjImY7uc6QQHWg16X97OfW7cfIjfl+exdyVS8xjNlviYglw03E4A+zXO2JqCUrAAYYyKm+7hOEJrIrzh8i7l5PbdWPYR7gYoARxhARab81wSEKwGtELU1ASVkBcAYEy1hX9cRQsqh/ti8n10rPsi5NN/wJohdyVSU/5qA8DMBtiagRGwNgDEmOi+u7EK2crHrGCE9wxFtjgn8qufXDwSdhNIm4CunkcsdxNFlvk9ApuIlNMQ+AcjxHGH7BBSTzQAYY6KTrfqa6wjheRNCvezw1pNBBiGBZwIGkMlMScWaAAmzbbA+bmsCissKgDEmOuLv4TpCSAvoWvVs6FdbCdg4KwGxZQXAGBMdld1cRwhHHuLr0lTQWxRSAtKyMDBMCbCFgUVjBcAYEyHZxXWCUETDf/vfUNgSoClaGBi0BKgtDCwWKwDGmOiobhuDO/gFfaxiReupkf0MWkqAsi5QDp9dkZTsExD0LoI+bfBtn4CoWQEwxkTjuTU9gfauYwQnLzJYGiN9y8NbT8aTQQS/RHAAXgrWBGjIfQLU1gREyQqAMSYi3rauv8qHemjuj0X5cfynBOi6gJkG4KVgTcB/SkCgn00r1Lc1ARGxAmCMiYbPdq4jhJKp+FPR3vvw1pPxvBAzAborkin/0wGaPQQk+GZBvv80z62xmYACWQEwxkRD/D6uI4SwlhVV04t6hNAlgAF4XkpOBwQuAa1QedxKQGGsABhjoqFeL9ez+SEe7zBYcsX5gWzg8NaT8b3gCwOVAZCSEqASbGGg0grfSkAhrAAYYyKiPV0nCEx5q2THOrr1ZDTETICkpAQQcibASkBoVgCMMVFJ3gDl6TslPV4hJUBSsDAwfAl4jGdsYWBQVgCMMVFJ4AyAN6PkxwxbAtBdIQWbBYUrAW0Qf5KVgGCsABhjoqF0icE5/WCPnMwtzg9jM1pKQOA1AbormoKrAwi1JqAN+E/zBzsdkC8rAMaYwtVpFdDadYzAqlrNd3bso1tPhpBXB6RhTYCEPB0g8riVgPxYATDGFK7NqmrXEUJYyuGyxmkCKwEbZyWg6KwAGGMKl6nq4DpCcPKJ6wSAlYBNsRJQVFYAjDERyFW7P6Ef8CG6pEg/jOCObj0Z/HDbBiPlf3WAZA8BDb5tsPAYz6y2hYEbYQXAGFO4nLR2PZ4HfuQ06Dfu4jq63WTQMJsF7YqfgoWB4ge/i6DSBhVbGLgRVgCMMYUTqXAdITBhvesIX3J0u8mIhrlEcADqlf/pAM8PdxdBsNMBX8EKgDEmAtnkFQCVeM0AtLASsHFWAiJlBcAYU7hEzgBo/GYAWlgJ2DgrAZGxAmCMKZziOT+nH/zRWJwfRkSObjeZXJg1AToAPwULA71QawJaoTzGJFsYCFYAjDFRyOG7jhBC/GctBrWbjB9mJoBdyaVgYWAm1ExAGzxbGAhWAIwxUZBMvL9NfxWVZOxcGLoE6AD8FJwOCFcCWqF2OsAKgDGmcKLJKwCirVxHyJuVgI2zEhCaFQBjTAS0wXWCEJJTAMBKwKZYCQjFCoAxpnDiN8ZgUV+wB2xRjB9FUbWUAFsY+GUbloCgCwP9dC4MtAJgjCmc+g3uR/SAD1+7FumnUVyD2k1GNfi2waq7kpOXUlECJPC2wW0QJqWtBFgBMMYULuMtdx0hMKGb6wihDWo3GSX46QBlV7KSgqsD9BAkxNUBwtNMSs/pACsAxpjCtWm3jJaJ9eToiqq4DhFa2BIAA8iRgjUBoUpAK0QfT0sJSO4vvzEmXiatXgm0dx0jkIbGjgzuvMJ1jII0T1tPAtoEfOU0KjiIo9stKEKqeHh2VQ1N8hKwa8BXNoAcz6C2zxQjVlzYDIAxJhrKUtcRAmtVkfxvwYPaTYaQMwFZyn9hYKWG3DZYy35hoBUAY0w0hGWuIwTnbeM6QSTCl4BdaUrBwsBwJaANMIlJq3crQqpYsAJgjImGssR1hMBE+7mOEBkrARsXvgQ8zFtt/1mMSHFgBcAYE5X5rgMEprK16wiRKqwElP/VAcFKwL281XYEtZLE+1zkJf43wzDGJIMyz3WEwFT6u44QuUHtJjNp9SA08MLAATTxAnWrDmFw+/pixXPqqPb11K06hKrNLAwU7il48P/9qp3JcTAi3wC2R7QGlQ7AamAl6AzEewfff5WO7aZykGRDHyskuwrAGBONJ1edg8idrmME9C7fbbe76xBFMWn1wBAlAOA9GrV8SwBA3aqajZaAQgb/SfXt0TbDgeHATnm/TqhHeQQvczvHtpkZ+LghWQEwxkTjqTXfAf296xgBNbKwbTtGSpPrIEVhJWDjvqoEhB38p2gFK1efjcpPgc4FpMqC3oOv/8tx1UVfU2NrAIwx0VCd63x73+CPKrqvGVCcH0gMDGo3GSH4tsHorlRR3msCBrevp1EPgc+2DdaQ5/yfXteHFatfQfkFaOcCfx8rgJF4Mo1JK4q+GZEVAGNMNNSf6348D/HwKdvLvIDPbiAkIW4gxAAa9QXqyvjqgMHt62nkEJSf8E7bswIP/o+v3Ids9m2UfSL+veyK7z3Nkyt/HMU/c2PsFIAxJjpPrloKdHIdIxCVmzmu3RWuYxTdE6sHIhrudEAT5X06IIwnVx8G+iTFvqukyCi+264oRcBmAIwx0RE+dB0hMM8vz0WAX3Rcu8mohLtEsJKXynomIKgnVx/2WZkq/i2lVS/jiZWjivHWVgCMMdHx9SPXEQJT2ZtaTcdnYSEloIrXqCvjNQH5av7m/xRK65IdU+RSnlg5Ouq3TccvvTGmNLwEzgBAR3ZZtb3rECUTtgQoA6jSKakuAS2Df/DTKIUT+VHUJcAKgDEmOiofOl/UF+bh8a2i/DziqqUEBF0Y6DOAipSWgCdXH4bqUyhtnP2eEm0JsAJgjIlOTt9HZY3rGMFJugoANJcAQp0OGEBFmV8d8EXNg3+YBZRFID+Kak2AFQBjTHROqJ5G57Yd8b09Uc4DvR9lhutYeUhfAYBCSsCuVKRkYeDng3/pzvlvllzKE6tvKfhdoohijDGbNGl1d9T/Jr63D+i+wDeBStexNqBkpReD2y1wHcSJJ1YPhFDfcKeRlYPK9ufWMu0fi2/+X0Wv5Ljqm8K+2gqAMab0JtW3p2mL/RB/IDAQ2Nl1JFRO5YR2j7iO4cwTqweGmuZW3sMvw30CHlt9GF7cvvl/iaI6iBOqnw7zYisAxhj3Jq3pRVNuICKHgQ4ESj+1LNzLcdXDSn7cOHli+UDUC1kCpHxKwGPLD8Pz4j74t1hMhbcLg9otDPpCKwDGmHipVY/dV3wNX74D3jGg/1OiI8/j+OreJTpWfIUtATCNnJf80wHNg3+Mp/2/0kSOrx4a9EVWAIwx8Va3Yls8ORbhe8C3Kebi5RwDGFydxL0MopXWmYBkffPfkI+yMydUTwvyIisAxpSDuqUd2MJrHhjXipDRjgBUVKwhk21s/u99n8GdVzjLGIW6tVuSaToRZDCwN1F/hqlexAkdxkb6nkmVthKQ3MG/xd0cX31WkBdYATAmjqZoBfUrt8ajPyI9QbZC6Y7qlgjdgOrPHh2AjgHffQXoSpCVCCvxqUdYiOgClEXgfYrvz6VVZnaY84olU7e0D5mKE1E5FXTPiN51CidUHxzReyXfE8sH4oc6HZCsEvDY8sOQRA/+ACvx2/dgsOR9SacVAGNcGqeVdFqz82c3pNkdGABsB/QlHpfJrQNmArNR+RCYBnxIlfwrVuXgiVW74OvpKN9H6FXAO2XxtTuDOyyNLFvSlXsJKI/Bv8WxQa4IsAJgTCk9vqwv6u2HyL6o7gWyE1DlOlYowjKUd1B5G9G38by3qW/7ASOlyVmmOs3grTwU8U5D9XjCfKiLns7xHR6IPlyClWsJKK/BH5TbOLH60nyfbgXAmGJ6YlU31D8cvMNRPQDYynWkImtA+AfKGyBv4De9weDOc5wkeWh5J1rJ6SAjgJ0CvPJxTqg+oVixEqvcSkC5Df4A6Euc0OHQfJ9tBcCYqNWt3gMv9z18ORLhf7Att+eDvIryCp4/hRM6TC95grqV+yKMBE5g8x/4q1ndvoYhsr4EyZKlbvnAzwbN4CVAY1QCHlt+GJTb4A/AbE6s3jrfJ1sBMCYKj67akYx/EshJNJ/HNxv3CTAF9Dky8hzHVS8p2ZGfWNmFHMNBzgXts9HnqZzI4Pa/K1muJEl6CSjfwR9gNSdWt8/3yVYAjAmrbmkHqDwVGI5Etgo9bXLA68AziPyBE9q/X5KjTtEK6ld/F9ELgP2+4hlPcGL18SXJkkRJLQHlPfgD5DixuiLfJ1sBMCao363YC9WRn12L3tZ1nDIzE+EZ4A9sUf0KR0lD0Y/4+PI9UbkI5WQ+v/JiPRV+T77XaXnRj59UdcsHIkwCCVgC9D00U/oS8Njyw0DKefAHWMmJHTrk+2QrAMbko1Y9dlp1DKKXAfu6jpMSa0BfQOQJ/IanGNxtdVGP9siS3lRUXAwMB9qBDOXE6olFPWbSJaUEpGPwB5jBiR22y/fJVgCM2ZQpWsHiVaehehmwo+s4KbYWeAp4mGXVLxT1UsO6FZ0RzsVnACd1+EHRjlMu6pYPhJAlgBKUgMeWH4amYvAH+CODOxyV75OtABjzVWrVY+eVg1F+CmzvOo75L/XAb0Ee5sT2byCiRTlKnVYxWBqL8t7lJq4lIF2DPwjXcWKHn+T/dGPMf/vtiqMQ+Tno7q6jmM36GOFhVB6ym/g4FrcSkLbBH0D9gzmp05R8n24FwJgWdSu2BcYCeU+hmVh5E+QuaP/bIPuhmwjFpQSkcfCHhVC9JYMll+8LrAAY8/T8LVjb9kqEy4BWruOYgi1F9F5y3MXJHT92HSZ1XJeAdA7+oHoLJ3W8PMhLrACYdHtk2YGIdw9CP9dRTOR8hOfx5U6mtX+WWvFdB0qNuuUD0ZAlQAooAY8uPwxJ4eAPDfgV/Til7fwgL0r7FqUmre5f0JZHV/wCz3vZBv+y5aEciejT7LjyY367/HLqVtW4DpUKgztORhgEGvBUjOwK/jmhjpnewR+Q24IO/mAzACaNHln5bTy9H+jvOoopuQaUOjx/NIM7ve06TNkLOhOgeg/TOowIPFuT6sGfGTSs24PTe6wJ+kIrACY9VIW6VZeA3gjkvV2mKUsK/BGRGxlcPdV1mLKWbwmwwT+MBnzdl1M6/i3Mi60AmHSoW9EZn/tAv+M6iokb+RNwIydVP1e0PQXS7uHlA/HY1L0D7mZah5GhBn9I6+DvI5zCSR3rwr6BFQBT/h5euhueNwnY2nUUE2tvIdzEvzr8zhYMFsHGS8BtnNThssDlK92DvwJnc3LH8YW8iRUAU94eWXE0oo8Aed8i06TeR4jejHR80HYCjNh/l4Asqj/mlE5jAr+PDf4FD/5gBcCUs0eXXQhyG5BxHcUk0lzQ22i7bgLf6bXWdZiy0VwC7kT9oZzS+U+BX2+DfySDP1gBMOVIVfjtyjGgF7qOYspCPTCWVvoruz1wRGrVC3WaxQb/yAZ/sAJgyk2dZsitGAcMcx3FlJ3VoPdC9mZOqQl8zbUp0KPLD0N5io0vJCxnisr5nNrhzijf1AqAKR9TtIIFy+8FOc11FFPWGkDryHg/Y3CHGa7DpIIN/pEP/mAFwJSLcVpJ9crfgR7rOopJjSaQh/H1F3y/499dhylbzYN/eqf9Jdpp/w1ZATDJV6cZsiseRDjZdRSTUsLfgfF4qx5gcG+7E2FUHl5+PMKDpHXwL9I3/xZWAEyyqQqPrBgHnOU6ijHAIoSJZPw7Gdx5juswifbQsgsRGU0671mjUNzBH6wAmKR7eMXtttrfxFAW4UnQOzm546u2w2AAdZqhaflYRM5zHcURRTmb7xdn2n9DVgBMcj287CKQ4JuIGFNacxEeRrx7Obn6I9dhYu3+5dtQwX3A/q6jOFKSb/4trACYZHp4yRHgPY3d1Mcky99RHqCy4uHQ97wvR6rCwyvOQvQ2oJ3rOI4o6Pmc2rkkgz9YATBJ9PDS3UCmYtv7muRqBJ5BeZBcw/NhbuVaNh5dvCM573ZEDnMdxSFFpSTT/huyAmCS5aHlnUD/gd3Yx5SPdcBLqPyeqsanGdxtgetAJfHQsr5ALXAa6d6uW6H0gz9YATBJoio8vHwSYLf0NeXKB/k/1P89nv6eU7u87zpQ5O5fvg0ZvQgYCbRyHccxZ4M/WAEwSfLQ8ktBR7mOYUwJzUJ4FeUVkNf4fsd/uw4UyjitpP2KY1H/LJCBpPPSvi9yOviDFQCTFI8s+Ta+9wpQ6TqKMQ7N+08ZUO81Tqv+0HWgjXpWW7FsxX6gR6FyCqI9XEeKEeeDP1gBMElw/4K2SKt3EPq7jmJMzCwH3kV4F5V3Qd5mzZr3Geng9sVTtIJPlu2IsC++HIlwMNC25DniTxH3gz9YATBJ8NCyX6Cc7zqGMQmRA50B8j7CXGA2yDwkNw/xZ/Nh1wWhbsXbom5RO9Z7vclUbIn626J8DZGvgewKmsYte4OIzeAPVgBM3D2w7ECEl7BzhsZEpQlYAKwC1iGsQKUBdDXCanxtAskgVNO8z0b7z/5vN6A3dvltWLEa/MEKgImzcfO3oG2b94B+rqMYY0wBYjf4g32rMnHWdoursMHfGJNszTv8xWzwB5sBMHF13/L+ZPx/ks7bgBpjyoMinM8PSre9bxA2A2DiKeOPxQZ/Y0xyxXrwB7uRiomj+5ceBRztOoYxxoSkwNn8oHPspv03ZAXAxEutesiyn7uOkTCrgBVAI8I6lPVAA+ADbUCrQVrRvHp7C2z7VWOKqXnwPy3egz9YATBx02/ZYJTdXceIGR9kBuhbwHuIzEVlHrnsfBob54Ta9OXhhd1pbLUVGe2N0gfoA7oVzZd5bQfURPtPMCYVFEnG4A+2CNDEyRStYM7SDxDZznUUx9YCL6PyAqr/YIvsOwzutrqkCSYu6oFkdsOTPYDdPnsMwLZiNmZjEjX4gxUAEycPLBuC6r2uYzgyG3QS8Cy5la8yZJv1rgN9SZ1W0bBiF1T3Bf8AkP2Brq5jGRMDiRv8wQqAiQtV4YFl/wR2ch2lhHIgU8AfT+vOTzBYcq4DBfbQ8n74/qEo+wIH0nwKwZg0UZTzOSO+q/03xgqAiYcHlh2L6iTXMUpkCcJostl7GdJtgeswkfrN0t0QvgMyCPTr2GeMKW+J/Obfwv44TTz8ZulUYB/XMYpsDfBLfLmJIZ2Wuw5TdPeuqsHLHolwDOhR2J3hTHlRSOY3/xZWAIx79y/eC/XecB2jiHLAneQqr2No+3rXYZy4f0FbaHU4qoOBY4E2riMZUwBFOZszk/nNv4UVAOPefUsmIpzpOkaRzES9Mzmz02uug8TGg0uqyep3ETkNOAT7HDLJoiCJ/ubfwv7wjFvjlnagtX5C+U0PK8IEWucuKfklfEkLvXVhAAAgAElEQVTy4JKtyMn3QYcC27uOY8xmlM3gD1YAjGv3LT0HtCz+mDawFtFTOaNraRY11mmGFYu6UlnRFfzP7p9Q0RbNegirAPAyDai/jDbrljK497qS5Apq4pK98TgL5RTsFIGJHwVJ/LT/hqwAGLfuW/p30D1dx4iO1uPxHU7v+mZJDnffklHApQFftR64lTO7XFOERIW7e0VnMrlhiJ4DbOM6jjGU4eAPVgCMSxMXD0DkX65jROjfiH8kZ9R8VLIjqgq/WXInyNmBXyuM4owuPy5CqmjUqsc2Sw5GuRDkaOzzyrihSPlM+2/IbgdsHJKTXSeIjsygKfvtkg7+ACLKrC7nARMDv1a5jPuWXBd9qIjUis8ZXV/kzK7fQfwBKGPhs1MaxpSGD3J2OQ7+YI3auHTfkg+AHV3HiMBixN+n5IP/hsp5JmBDDy6pJscQlCuAHq7jmLKWA87izC7By3VCWAEwbvxm2dfw/X+4jhGBdXgcwhld/uI6CKrCfSFLAIxiSEJKADTvK5CrHI5wKcpWruOYstOIcCpndnncdZBislMAxo2c/13XESKgqJ4Si8Efmk8HzO5yHhLidAAxPx3wRaf3WMOQLmNZ2XlbkHOAf7uOZMrGGuCYch/8wQqAcUU40nWEgonexdASXeqXr1rxmdV5eKgSoFydqBIAcIE0MKTzXczuvAMqpwHvu45kEm0+4h/AkC6TXQcpBTsFYErv3lU1SOMCkl1A/83a3O6cF9NNftJ0OmBDqsJ9y44BvQrY23UckyjvkpHvcHrnOa6DlIoVAFN6ExefhnK/6xgFyOF5B3Bm5z+7DrJJterRZ8ndwJAQr76eoV3juU9Avu5dfDDKVQiHuI5iYk55isrsDzi9xxrXUUopyd/ATHId7jpAQZQ7Yz/4Q/PpgDldhhPmEkG4mnsXJ+t0wBcN7foyw7oeis9eKE8BvutIJnayCFcwtMtxaRv8wWYAjAv3Lp4D9HYdI6TV5HLbclb3ha6D5K3ldIAS4hJBSe7pgC+6e9G2eJnLQIcAla7jGOc+QfxTGNLtT66DuGIzAKa0Ji7bmuQO/iA6JlGDP3x+dUCozYL0ssTPBLQY3m0GQ7uMRDLbI/wK21QovUSegaavpXnwB5sBMKV27+IfAA+4jhHSEqqkHz/ostJ1kFBsJuC/3VPfHuEUkPOBXV3HMSWxEvQyhnSdgIi6DuOazQCYEpN9UUjoY3RiB3/4fCZAmRj43+6X0UxAi2E1qxhaM56hXXdD9WCU36E0xeD3zB7FebwAsgtDa8bb4N/MZgBMad295C1E93AdI4QmPL8PQ7otcB2kYLXq0Tvk1QFSBlcHbMo99b2AESBnAb1cxzGRWIDyY4Z1edAG/v9mBcCUTp1WsWrJKqDKdZQQHmdY1xNch4iMqnDvkjshxOkAZBTDyux0wBfVaYaVi49C5ALgEOyzMomywJ1kvZ8wsvMK12HiyE4BmNJZU78TyRz8QWSC6wiRElHmhlwYSMxOB9y9ojMPLqmO9D0HS47hNU8zrOtA1N8ekWsBdzd7MkH9AZHdGdb1Qhv8N85arSmduxefgXCf6xghzGZul37USvldR14OpwN+tagdrb2PUO7FaxrL0J71RTvWxMXfQPk+yknY3Qjj6FVErmJol9ddB0kCKwCmdCbUj0HkItcxAhPuYFjXC13HKJqWEqAhdwwcHoMScPfi3wHHA2tQnQDebZzVZV7RjlenGZYvPRRPvw98F2hftGOZPMif8LmBEV2ed50kSawAmNK5u/5ZSOBNgHz/CEZ0L+8Plv+UAA1RAsR9Cbhn0WBUfrvBf9OI8gDqjWFEl+LeIGjc/C3wKgchnAQMBLYo6vFMCx/0KTQzirO6vOE6TBJZATClc3f9R8B2rmMEtJbM6i4M2Wa96yBFl+QScP+CtjRmFvHlwVeB5/HkNoZ2fbHoOermtmFFq4MQOQY4GuhT9GOmzzJEHsDzf8mQbtNdh0kyKwCmNGq1gq0WryV5W7A+w/CaY1yHKJkkl4B7Fj+G6qau1HgXZDRrlz3KBds1lCbTwt1BjkY5BmQvbOF1IaaCjCez6rFUFPISsAJgSuPuRduiksC2rhdyVrc7XKcoqVr12HLJ3RCiBIjDEnD34tNQzecuk4tQvQevchzDO80ueq4W935aQ67ySOAY0IOAriU7dmLJe6hfh89vOdu+7UfNCoApjfELD0e851zHCEz8fRnePf53/otaEkvAuPld8SoXAJk8X5ED/oDn3cnQzpNLukmMqjB+4S543kHAASD7Y4UAmu/Y+A/gD2S8xxja5QPXgcqZFQBTGhMWDQG513WMgHwatQPndVvtOogTSSwBExb/GfTbgV8nTMeXe1C9n5E1nxYh2aapCncvGQD+3iB7g3wLdCfyLzNJVo/wEip/JJt9jnN6LHIdKC2sAJjSmLDof0Gudx0joI84q2YH1yGcSloJmLDoKpAbCniHLPBHkHv4pMsz1Eo2qmiB3VPfHtWvoewB3h6gewA7k9TNtD43A/TPwJ/wvT8zsus014HSygqAKY0Ji34Jcp7rGAH9lrNqTnYdwrkklYAJC3cD752I3m0ByoNk/AcZ1j2q9yzMOK1Elm6P5HYEdgDZqfn/0h/o6DbclywHZoC8B/7bCG+Tq3jHduaLDysApjTGLXockeNcxwhE9WpGdivk22T5qFWPnkvuRkJeHTCiRCVAVZiw+BOgZ8Tv/AGqD+P5D3NWj5kRv3c0Ji7rSENjXzyvL6pbI/RC6IFKDUpPhO5AB6BtBEdbhbIcT+ehshB0HiqL8GQmyAz8hhmM7LU4guOYIrICYEpjfP1UYB/XMQIROYOzuuazqjwdklICxtc/DJxSpHdXkL+g/m/xMk8UdbfBYqnTDItXVNO6oRONtCfjVSCSweer7qewAlGfnJ8loytpar2cRR1WlOW22ClkBcCUxrhF7yGyi+sYgSgHM7JmiusYsdL8DTvkXQS5hRE1l0cd6UvG158FjC/6cZp9gPIYyKN2LtskjW1KYUpDtLp5U7YEPSqYX6SfRnKJKPO7nofqxBA/0x8zflHx7yLo6ZQS/p7shOi1iP8vxi96hwkLf8aEBXtTq/bZamLPZgBMaYxbtJzm84/J0cZvx+k91mz2eeMX3sb8bpelalq0ZSZANcRMgNzCyCLPBIyrnwXat6jH2LQlwMsgLwJPO7m00JjNsAJgik9VGF+fJVkzTisY2W3zq6prtYKe9Q3Ab/i0ZniqSkCtevSsD38r4RHdircmYNzCh0BOLdr7B5ND9O8gU0Cn0Fqn5lUsjSkyKwCm+O5f0JZ1XtI20/mEkd222uyzfr2gG5638LP/NNFKQADFLAHjF12IcntR3rtwTcCboFPwMq/QKvumFQLjQpK+kZmkWldV4TpCCPndbKSiossG/2kIPevvTtX531rx+bRmODAx8GuVq4u2JkD8N4vyvtGoBPYFuQbff4l13jLuWvQXxi28lV8vSNZCWZNo6fmgMg6tT9odAAHJrwD42uYL/80QetTfk7oSMKJmGCJ3BX6tcjXj6m+OPNO6VW8BpbnjX+EqEfYGuYSMhLjE0phw0vMhZdzJVlS4XtAf/KHr8vvH5Sq/9Fo4M3UlQEQ5q+u5qNwV4mf948hLwAXbNeDzrvvfo4AP3+sX6c/BmE1IzweUcacqU76nAHLexvZlT2cJGNn1XAgzE1CEEiD6VqTvVwqiVgBMyaTnw8m405jIxaYawXucSY+UrQkQURZ0PY9QawL0x9wV5ZoA+Wd071UiSj9Uk/j3YhIoPR9MxqFck+sEwWmr/J7nb+7fls41ASNrhoWaCSDCNQHqvR/J+5RWO+5e1M11CJMO6flQMu5oY5Pzc6uBH5JfARCvIY/3S/dMQODz4FHNBGT/6f73KMSjMdOn8H+7MZuXng8k406bVo3uP1UDj0J5FoBcQ17vpzqEHgvTVQJqxWdBzXDEnxj45696dcEl4Jwei0Dr3f8uBXxINuo7GRrzldLzYWTc8VYn8BSAtM7raVqZ/73NVVJaAroPR3Ri4NdGUQJgeoGvLz0RKwCmJNLzQWTcmb11I81fb5KkU17PWrduaaB3tRIQTOElYFYBr3XFCoApifR8CBl3mrfGXeU6RkAdqHt/Y5f4fe7i3uvI95LBFipD6L4ohQsDuw9DCXOJ4NX8emHIhYEyK9zrHBIrAKY00vMBZNxSlrs+tRr4sazbhtv8bpzPqBDvfybdUjYTIKIs6tZ8K+HgP68fc2eImQDfn+X89yj4o3vgf6cxIaTnw8e4JeR/rjwuGnNd83reed1/ghJimlqGpK4E1IrPou7DIcTpAPTq4CVAZgc/jmOqm78LpTERSM8Hj3FLWe46QmAZyf+b2HndfwJyffCDWAkIRq/mVwt/lvfTMyzc/JPiRqwAmJJIz4eOcUySVwBU+wZ6/rndrrESkKdCSoBwTd4lQDOLA7+/ex1cBzDpkJ4PHONaEr+JBSsA8FkJIP9vqJ8fK50LA8/pPgxCLAwULsvreU3LklgAbAbAlER6PmyMW5r7FFUS9UC3CfVvPbf7taDXBz6er2fSNWUzAS0LA32dGPDn1ZqJMze/V8MF2zWgutr571KwR7XdD8CUQno+aIxb6n3qOkJwunXol57b4xqE4KcDhCGpKwG14rO4+3A04A2EGtvlt1cDLAseyimPxz6odB3ClL/0fMgYtzwSWABk24JebiUgf2FKQLYpz6lyXRcylTv1NZvfg8KYAqXnA8a45WsCCwA9GDc/v0sBN8ZKQP4Cl4CKPO/YKME2aoqDVg1WAEzRpefDxbhVmZnjOkIojbJLwe9xbo9rUA2+MFAYQk0KFwae130Y6OYXBnq5fAfJhsJCObC6yk4BmKJLzweLcWtE1wUoa2Kwy1qwh0fhBQDg/J7XolwfPENKFwbW9zgP3cythJs0/xkA179HQR+VWZsBMEWXng8V45aIojrT/Sdr0Ac7R/YzOL/HNaA/C5FjCF0XpHMmQPSujf5cMs3/D9oszWXc/x4FfHi+H/AnZkxg6flAMe4J/3YdITBlz0jf7/ye1xJqnwDOTF0JEFHO7XEusrF9AiS/qX2RNhGmKpHKBN5C2yRNej5MjHsqH7uOEMIe3DE9z6nmPFkJyN+mSkDOa8zrPZTN7xcQN+uasq4jmPKXng8S414F9wK3obwBJOUbThVe+z0if9fze14bbttgzqTrgnSuCeALVwdUZPNd3Z+8AlCxhRUAU3Tp+RAx7p3T45+c3/NSftjzW6yTTqgcgnIdPlNRGl2fdt3E45tF+Xmc36P53gHB8wyhS8pKQK34LO7RfIlgy88h6y3N67VKmxj8DgV7ZNcmpSCbBLPtJk08jFrQllb+PggHghwEfAPIOE71GXmQH/Y4rWhv/8sF16F6dYhXTmRJj+HUSnoWjNWqR5cFdwNn0L1HFYMlt9nX/OLTVUC7omeLTpbze1Qhoq6DmPJmBcDE0+i5nanyDsOXoxCOAGqcZRFmcX6vcPcFyNcv51+HEqIESDpLQNdPb+H8Xpdu9rnjlnagcX3S7kS5lB/26uI6hCl/VgBM/NWqR+cFXwf/aEQGAbuXPEMm059zuxf3KgYrAdG749OdEH3fdYxASlE4jcHWAJgkqBWfC3r+HxdseS0/7LUHwtbARcCfgdIMernsQUU/xvm9wu0YiA6h6/x0XR2QL9HeriMEpqxwHcGkQ4XrACYi47SSpk+q8So70JRrvkuasAV8xW5pwjr8z/ZHr8wsI5NbyafLVlK7c36XVbl2fq/ZwFhgLL+euyVN3vcQORn4NsWa1RI5CLinKO+9oQu2vJZfzvcCzwSonEmXBUqt2kzAf9FeCZzotAJgSiJxfxmp9KtFPchlt0N0W3z64klPVHqC9gTpBdoJiGKzk/XAMpB60PnAIkQXgcwDZpP1Z9EqN5tz+8bz9qpjPt2ajJ4KnEqUO/gBIPO5oOeW0b7nJtwx/zoIcTpAZSLL7HTAf9zx6U9Af+o6RkCPcUGvwa5DmPJnBSBORs/tTEa+Bt7uCHsAuwDbEb8VzCuAj4EPEfkXMI1c9kOWr5wWm1mEO+btjsgPUPkB0COS9xRvN37Y471I3isfVgIKN3b+7xCOdx0joDu4oNeFrkOY8mcFwJVa9ei0cCckux/IPsC+QF/XsQojTaD/Ankb8d/G521aN/yDkf3dTWnWagVd5h+FMgw4ikJOe4lcyQ973RRZtnzcMf86CHGJoDKRZb2sBPxi3seo9HMdIxAXv2cmlawAlNLouVtS6R2Br0cicjDQyXWkEvCBf6G8gcdf8DNvsqz7B04Gpl8t6oHfdPpnZWD7EO8wlQu23C/qWJtlJSCcMTM7kqlaSuI+5/QMLtjqftcpTPlL2B9GAt0xb3dgMMjRuLh8LZ6WAa8hMgX1X2Hplu+VdJBSFX41/1B8zgOOIf8Nh3Jk/W5c3Du/HeiiZCUguF/MPRD1priOEZjqoVy41UuuY5jyZwWgGH4xfwC+ngycBAxwHScBloBMAZ5H/Oe4YKt5JTvy2Pl9wD8blWEI3Tb7fJEfcEGvh0qQ7Mtun38dEnLHwDSWgNvnXYLIra5jBOZl+vHDHjNdxzDlzwpAVEYtaEtVbjDCWSjfch0n2fSfiPc86v+R1gteY+TXi78v+h3TW6FtTga5GNhtE8+s48ItTyp6no2xEpC/Oz55DuVw1zECaqRnry3y2uLYmAJZASjU6E93JqPng54KVLuOU4aWAc8i+hSZquc4r9vqoh/x9k8GIlwMHM6X/0bW0Fq6MbLX2qLn2BgrAZs3bv4WrNclJO9OgB9y4ZY2a2hKwgpAWLfP2R/xLgOOxn6OpbIeeBH0ERorJ3FZjzVFPdro2TuT8X4EchpQ9Z//XhnMRVs9VtRjb87t865DwmwbzESWbVn+JeCOeUej/MF1jBD+wIVbfcd1CJMOtnVoULfPO4ax895AvFdpXkBmg3/ptAaOAXmIquwCxs57gLFzj6BWi7Oj5cV93+fC3sMR+qPcDjQXDsH9Ji0XbXUNyvUhXjmETp+k4FbCeoTrBKEIH7qOYNLDBq98jZl7ICI30LzdrImXhSC/xfcf4uLe/1e0o9zxaQ2auxBlCE0V2xd9BiIft88Lt1kQTGR5mc4E1GmG+Z/MBJJ3HwD0NC7q/aDrFCYdrABszph5e4DejMhhrqOYvExH5CHwH+bC3tOLcoQ7llSTXVvh5HLAr2Il4L+NnXsUKs+4jhGK+LtyYZ9/uo5h0sEKwMaMmdkRqfop6LnYTZOS6u/AHbRZ8EhJriRw6fa5PwX5SYhX3sfyLYeVVQkYM/epz24bnTTrWb5le2ol6zqISQcrAF+kKtw+fwiiN0Ie14WbJPgUdAI+47m49yeuwxSNzQTAL+b0IufNJpGlXf7GRVt+w3UKkx5lvhAooF/M2oax815C/HtAu4Fij7J49AR+gscsbp/7O8bMOxjV8iu/F211DXB9iJ/PEDqWycLAnAwHrYjB71zwh/hvFueHYsxXK78PwTBUhTs+OQvVW4H2ruOYkpgO3IPPhNicy4/K7XN/CoQ4HSDJPh0wZmZHpOJjoLPrKKGInsKFfR51HcOkhxWAW2b2oDLzAMihrqMYJ1Yjcj+Z7K38cOuZrsNEZvS8cJsFiST3dMDtc25A5SrXMULLSO+SboNtUi/dBWD03AMQHgF6uo5inPNRnkUy1/KjXv9wHSYSo+f+FAk5E7AiYTMBoxZ0o6JpBkmdwVNmcnHvZN222CRe8s/5hVGrHmPmXIPwEjb4m2YewjGQ+xtj5j7F7XP3ch2oYBf3vhaVEJsF6ZmJWxNQmb2WpA7+AKJ/ch3BpE/6ZgBurm9P1fpHaN7C15hNeRlPfp74W7OW++mA0XP2Q+QVEv2FRk/lR30ecZ3CpEu6CsDouVsi+ntgT9dRTJLo2whj6NXnocTepW307J8iIfcJWNE7vqcDRi1oS0Xj28C2rqMUIEel153zt1riOohJl/QUgNvn7oWvTwE9XEcxifU+KjexaqtHE7lZy+g54fcJWNk7njMBo2ePBznLdYzCyOtc3Hsf1ylM+iR4yiyAMXOPxNcp2OBvCrMzog9QPfcjRs85m9qZybrV7MV9PtsnILAhVM+N35qA2+YeDzLcdYzC6R9dJzDpVP4zALfNORahDmjlOoopN7II9X9NU3YMV/Rf4TpN3kbPDrdtsMTodMDtc76BzxSgresohdNduLjv+65TmPQp7wIweu6poL8hkduCmgRZicivqZRRiTmPm+QScMuc/lTI66DJ36pb+SeX9NnVdQyTTvGa0ovSmNkjQB/ABn9TfNWoXk6jP4vRc37BrTMHuA60WRf3vZYwpwOUM52eDhg1oxsVPFcWgz+AR53rCCa9ynMGYPSsYaiMp5wLjom7PwNjWdXnyVgvGLx1dsjNgriPVX1KOxMwZnY/fP0jyPYlO2axqb8jl24zzXUMk07lVwBunT0C4S7K8d9mkmgWyq9pnbkntqcHbp1zHaKXAgEXNcqtXNLnsqJk+qLbZu4N8nuQmpIcrzT+yiV9v+k6hEmv8hokbfA38bUe1UfIMIEfbf0X12G+0ui5bZBcR3LaAbzmxXWe1w5fFXTNZ89ahzYtpm//JSXbE+HWWcch8gCwRUmOVzojuKTvBNchTHqVz0Bp0/4mMWQO6COIdzcX957hOk1sjZu/BaubbgR+SDl9VjVbTXZdLy4fsMp1EJNe5fFHZYO/Sa6/ozwAlQ9xaa/FrsPExphZ30LlNyjbuY5SJOO4pO/ZrkOYdEt+AbBpf1Me1gNPo9SRW/d8ar8Z3jKzB55cg8jZlHWh1z25ZOu3XKcw6ZbsQXPUrGEI9s3flJsswpuoPEYu8ziXp+Ae8TdPa4/X5lxErwKqXccpspe4dOtDXYcwJrkF4NbZI0Dtm78pd4ryd4RJiP80l/R7x3WgSN08pxcZHQ56EdDJdZyS8PRILt7mOdcxjEnm4Gnf/E1aKfWfzQ5MRXiR1X3eisXWvEHUqkfbOQcjOgL4LlDpOlLp6HtcsvXuiKjrJMYkrwDYN39jNrQE+BOqryKZP7M69x6126x3HepLaudvQfvGA1GOAjkWtLfrSE6InMYlfR90HcMYSNogaoO/MZuTBT4C3kHlHTL+OzRl3uXyPvNLmuKmjzuQ8b6GyP+ADAQ9gMAbDZWdD+jTd7eS7Z9gzGYkZyC9dfYI1AZ/Y0JajDIDYR7KXDyZja/zUH8uVd5ctuy7KPDAdMf0ahqrtsLPbQXSC/H6gu6CsifCNtjf6n8TjufSrZ9wHcOYFsn4A7115gjULvUzprgkC7oKZA1oA7AcZB2oR/PttNuiVAFtEdpRFrfiLZm/cunWe9m5fxMn8b9Tng3+xpSIVgCdQDdYjf+F8cr+CsPxvCtt8DdxE+9V9KNmDUP5NfaxY4xJrie4pO9LrkMY80XxLQCjZg0DtUv9jDFJtg7kUtchjPkq8TwFMGrWMNQGf2NM4t3Ej7ee6TqEMV8lfgPsLTNHoDqBOGYzxpj8TWctt7gOYczGxGsG4JaZdp1/YZYBnwALAR9YvsF/D82lqgPN12O3ATogVKF0BHrQvNLbGFM4H1+HUts/fpsyGfOZ+BQAG/zztRZ4F/Rt8N5CZTr481nXei61vdYW9M63zOyB5/dGM1uh2gfVPgi9QXcG2Z44/b4YE2fK7VzRf6rrGMZsSjwGWxv8N2UV6IuI/BHfm8o2fT9yspNY7czWtMvtjC+7A7s1P2QP0nIDF2PyN42Kyj25uPc610GM2RT3A64N/l9lPvAI4j/Lmoap1O7c6DrQRt04Y1sysj8iB6IcAPRxHckYhxpR3YfL+//NdRBjNsftoNu84M8G/2Y54DlUJrB+1jPUHpR1HSiUUbO2wdf9Uf9ARA4AtnEdyZjSkQu5fJs7XKcwJh/uBl4b/FusA+6kwh/LJdvOdR0mcrfO3ols9lhEjgX2wq7uMOVKeZwr+p3gOoYx+XIz+N4yYwQqaR/8s6ATQX/G5dvNcx2mJG74d3cqOAb8Y0EOBbZwHcmYiHyM8j9c0X+F6yDG5Kv0A7AN/gDPkuNHXNX/I9dBnKmdvwVt1h6Gyg8QjsEuQTTJtYKM/20u3e4D10GMCaK0g/DN/0779r5rEa7isn532I1BNjBmZkeacsfiy2kIh5DucmiSJYcyiCv6P+M6iDFBle6D9uZ/p3t7X5G/4Punc+W2M1xHibWbPu6DcgrCMGA713GM2TQ5nyv6/cp1CmPCKE0BuHHGCCTV0/5jWd/vYmrFdx0kMVSFm2fuh3AuqscBla4jGfPf9Fau2PYy1ymMCav4A3K6v/krys+4sn+t6yCJdsvMHuT8M/A4D6W36zjGAPdxeb+hdirPJFlxC8DN04ehktbBvwGVIVzZ/xHXQcrGuL9VsrTDdxEZARzqOo5JK32cftue5GRHTmMiVLwCcOOMEQhpnfZfj+ogrtzuBddBytYtH+2BLz8E+QFQ5TqOSY1JdFp+IiO/3uQ6iDGFKs7g/PPpw5AUf/MXOd5WBZfIDf/ujpf7EcgPsX0FTDEpj9Jl+ek2+JtyEX0BsMHfBn8Xbv2wK03e+SAXYDcoMtG7n4a5wxK7RbcxXyHaAnDjjBGQ4ml/Qk7716pnVwhE5KaPO4B/HioXATWu45gyINzK5f1/bAv+TLmJbqC2wT/c4H/TR/uj3j143rlc3m9yEbKlU+38LahaOxzhUrArB0woWdALuXK7O10HMaYYohmsb5yR5lv6rgfCDf43zrgE9CagAliHp4O4fHsrAVGqfb+KqsrvI97loDu4jmMSYwUw2BbymnJW+IBtg3/wwV9VuHnGrSgXf+F/sRJQLLXqUTXjODyuRNnTdRwTY8rHwLFcZXv7m/JW2KB9w4yTEX2IdC74W4+EGPybB6LxwLCNPGMdqoP4XysBRXPjjCPw9UqE/V1HMTGjPE7GG2Z39TNpEL4A/JWOD5MAABn4SURBVPyjvUBeI53XYBdr8G9hJaAUfj5jH9ArgKNJ5wyW+Vwj6GVctf0droMYUyrhPvRuntaeXOYdYJto4yRCsQf/FlYCSuWmD3fHlx+BnAS0dh3HlNw0fO80ru7/N9dBjCmlcFP3Oe8n2OAfTNWMq8l/8Adog8gkbvhoYOBjmWCu2OEdrtr+TKr83qCXA/92HcmUhA+MpnXrPW3wN2kUfAbg+hm98fwZpG/qfz0i4bf3/fn0GuAl0F0DvnIdis0ElFKtelROPxLhXOAI0rnGpdzNwNMhXLHDVNdBjHEleAH4+fTbUP3i6vVytx6vgMG/RUsJ0BAlACsBTtz4UT98zgaGAl1cxzEFW4fITTRW3ELtNutdhzHGpWAFoHZKBZVbziddO6xFM/i3sBKQTLUzW1PZdDJwNrCX6zgmlCfxchdz5Y6zXAcxJg6CFYDrPjoUjzQNQNEO/i2sBCTbz/+1Pb73fUROBbZ1Hcds1l9Br+R/d3jJdRBj4iRYAbh++g2IXlWkLHFTnMG/hZWA0qh9v4ranRuL9v7XT98b0VMRTkLpVrTjmDA+QLiGK7d70vbxN+bLAhaAj55HOKxIWeKkuIN/CysBxXfDRw8h/IvGpjup3Xlp0Y5TO6WCyl4DEfk+yneBtkU7ltmcd0FGsd22jzBYcq7DGBNXAQvAhx8D/YoTJTbWo94grinRHuA/n16D778EBC8BIlYCNueGaUNRuQdYjcg9aHYMV+80u6jHHPVOWxpafReR41AGAu2LejzT4mVUR3H1Ds/bN35jNi9oAVhJeX+YlXbwb2EloHhqZ3akovFTPt/gpwmkDvzbuXpA8a/9vmN6K1bp/qh/DMgxlH+BLrVVwCP43l38ZLu3XIcxJkmCFoAskClOFOfcDP4trAQUz/UfPgF87yv+l9cRHUvTp09Qe1C2JFmu+2hHPI7B949GZB+a7wRpghL+is8EctlHqN15tes4xiRR0AKwmvI8t+l28G9hJaA4rp92YvO3/o0Q5gF30sQEandYXLJcN77biVzrI0CPBA4Eepfs2Ikk/0T8OkR/y1U7fuQ6jTFJF7QAzKH8PqTiMfi3sBIQvdFz27B2bT2bL68NqD5OJjOeK7d9reTnka+b3h8vdwAqB6J6ACJ9Snr8+Mmh+n+I9yy+PMlPtnvfdSBjyknQAvAycFBxojgRr8G/hZWA6N3w4eMoxwV4xYfAeDz/N1y145Jixdqk2mm9yHh7I/63QPYG/gdo4yRL6cxCeQ2PPyL+ZGc/e2NSIFgB+Nm/bkOkXLYBXg86iGt2jNfg3+Ln02vI5cKVAN8fxLU7WQnY0M8+PB3R34R4ZQPwFMj97LD9804vK6udUoHXbQe8zB747IH3/+3df5BdZX3H8fdz9m6WFUP8QcQqM9XWyCZhoxvMJv4gMROzQ9PW1EHt1Laj1YrECUMjboAQ4Sa4iwmsAcEoqCi1tR0yTEkp6rgTI5dfMUD4sSRZDEr9yY9ECzpLsj/u+faP3Q0Qye6ec8+9zz3nfF4z5z/uud9cMnk+53m+z3Now3gbcLK3mipzBHgU7MdYcBcBd7L+tF/7LkokLyKeBNj/fmB7dUqpqfoe/McpBCSne/9rKbunqKzp7ilw/46FN3Hp7L6kSqtY8bGTCZiNowU4DQtbcMGbwN5EffTsDAFPYPY4uP3AwzSEDzH8dH/Nmi9F5I9ECwBf/GUzAwNPk+6tgOkY/McpBCTn8v6djDbbJeEh4Du48OaqnytQieJjJ1OwN2HuVOCNEM7EuVMI+RMcJwPTcZyEMQN4FVP/NyEEngOeBX4P9hy4pzGeJHBPEvIbjF8T2M847bRf6EAekfoT/W2Al/d/nWjvta8n6Rr8xykEJOPz/f+CsSXhuxrYblxwMzRsY/1bfpnw/WuruHcaTeXRWQNrLjBk02kIjcLQs0f/m4IN0fm2AV8likgyYgSAn8yG8FHS9470dA7+4xQCKtf9WAtl21/FbzDgXuBW4L/5XMtjVfwuEZGKRA8AAJc/9i3MPppwLdU0iAVnc9lbb/ddSEW6D8xkJFYIyMafPwkb+2u5lfVnwP/ggtt43e/v4FPvGK7R94qITCpeACjufT1B8Cjw2mTLqYojONL75H+s7gMzGRmJNxNgppmAjfu/CXzMwzcfwtFL6Hqxhl6Ks37loQYRkaPiBQAY3RFgdmtF96i+bA3+4xQC4tvQ//c4+zffZYDtB9eLo5fGaXdy0Z8/57siEcmXygbvy/dfjNGdUC1JG8TsbC6bk81p7/ghINu/y2S6+k6hXHiS+gquIdAP3AV2NwF31PXOAhHJhMr/EdywbzPOdSZQS5Ky+eR/LM0ExLNx/15gju8yJvE4cA/Yj8HuJXymT3vmRSRJyTwFFfdfieOzidyrckcwVlLM+OA/rvvATIZjhgByGgI29H8dLG1bWQcIGhbwubdWcxeDiORIMlv5irM762QpYBDsg7kZ/AHWzTpIY2EZEPVkumZwt7Fh319Wo6z6Ft7ru4IYTiQs1/ushYikSHJ7+YuzLxkNAYanaxByurZ9NARYX8TfrAm4JXchICjf4/HvaQUXb63GzyEi+ZTsYT7F2ZdgzsdMwCCQz8F/3LpZB2lsjDMTkL8QsP70fuB3vsuIzEIFABFJTPKn+Y2GgKsSv+/xHcHc+3M9+I+rLARsY8O+5VWoqv44Z2D3+S4jMudO812CiGRHdY7zLc7uBK6syr1f6nnM5afhbyrih4BmYHtuQoC5h32XEIMCgIgkpnrn+V82Zy3GhRhWpSXRQzj3vsiDf9ECNuz7HN0HZlb+h6xT4yHA6Iv4mzZjeQkBFvW3qYfrNRT3vqY6v4eI5E11X+hTnLMZbAW4ZxK+811gZ3Dp7Gjd3EULYP8NGBsZGt6R+RAwLeZMQC5CQMMjviuIJbBavcdARDKu+m/0K879PtOYA/ZVsJEKH4EO4uxcmL2E4txfRKvDAth3A9gnxu7VytBQTkJA5N0BzZhlPASU+8GGfD/SR74sOLVKP4iI5ExtXum7bvZvKc5dBcEssKuBiDMC7hHgPE4ceTOXzb2eogsjffzo4M+xh7/kJARMizkTkOEQUJw7BKTwdb2mACAiifBzHnpxZwFOeRcuXIK5ecAs4CTglcAfgCeBn+DcfQTBDyt6r/rxB/8X62PatGWsm3Uw9vfUu+4DMxkaindioHPZPDGwuPe/gL/xXUZEXRTnrvddhIikXz29EKUKzFHc92WMVVP4j/txLKU496mql+XLxQdm0jS0A4sYAhyDhO5sNmZsq+Vle3uAz/guIxLnbqI452O+yxCR9KvNEoAPRQso7vvaFAd/gBbgB1yc4eWAK2YdZHDaMlzE5QCjicC2cWnGlgPMfua7hOjsDb4rEJFsyG4A4NHTgY9E+ojRStPQDoWAl2E0E9j2TIWAIHjCdwmRGa/1XYKIZEN2A0Cx9RHCcCWOw9G6rG0sBOzJeAgYHAsBkX6bsRDQl40QMFJ+wntXf9TL8eoq/RoikjPZDQAAG1t7wZ2FYyDS58xamTatRHHv66tUmX9XzB8LAS7iTIA1E7jbuLQv/e8OGLE09nvoICARSUTGmwDHFPctJgy/C5wY8ZP9BC7jjYF7ZtLYtAMs6u6A0bcvbmxNcWOgOS7dOwg0+q4kAiM4OI3i0hHfhYhIumV7BmBccU6JIFgBEWcCoIXQdmZ+JmB4cBlEnAmAJnC3pHsmwBlwyHcVETkGXz/DdxEikn75CAAwGgKwD4A7HPGTLYT8INs9AZWEgGBbynsC0nf2Q8PIq3yXICLpl58AAGM9AeFKsGiNgYStNDZmvDFwPAREPTY4HH2LYFpDgIWHvDf2Rb0KQVOVfg0RyZF8BQAYDQGBnUX05YBWGhuz3xg4PBz3VcIpbQx0z/uuIIZpvgsQkfTLXwAAKM4rUbYVGAMRH75aKIc56AkYjvMq4SaMFPYE2BHfD/SRrzKaARCRiuUzAAB0zSsRWrzGwDyEgJFYMwEpDAHuiO8KIgvLCgAiUrH8BgBQCJhIXkKAMei7hMiclgBEpHL5DgAwGgIcHwCi7w4oh9nfHRA/BKRjd4Bj2HcJ0TUUfFcgIumnAACjjYGhnQU2EHFBtpVCIfuNgSPDMXYHWDNm9d8YaNbkf1E/chOADgESkYopAIzrmlciJOZyQDkHywEjMWcCrL6XA5xr9l1CZKmctRCReqMA8GLjISDW7oCchIA4uwNCu4V19RoCrNn7A33UK3QKACJSMQWAY3XNK2ExZgLyEgLKMWcCgjoNAaE7wXcJ0WkJQEQqpwDwcrrmlQhc9MZAo4WRcvYbA+OHgPprDHSWvgAQFNK3c0FE6o4CwPFsbO3FiHdiYB4aA+OFgGZCu63OZgJe57uAyBqGn/NdgoiknwLARI4uB0TcHWDWQnkkJ8sBkXcHNBGEt7DuwToJAXaq/0X9iNeRBgUAEamYAsBkuuaVMBe9MTCkheE8hIByvMZAF/gPAWv7p2NM9z2eR75O+O0fqvODiEieKABMRde8Erh4WwTzEALCcryeAN8hYNrwqd6+O74BikvVBCgiFVMAmKqueSUsiHdi4PBI9hsD44eAbazz1Rhob/TzvRX5ne8CRCQbFACi6G7txYKVRA8BrQQNOxQCXlYzLtzuJQRY+Jaaf2eljN/4LkFEskEBIKru1l5w8XYHBA3Z3x0QPwTcVvvlADe/tt+XAOcUAEQkEQoAcYz3BJgNYEaEq4Wh4Z105iAEhNYX8bdpAlfbngCjLWKN9XA9WbPfR0QyTQEgrq55JVwQrzGwMQchgHB0d0A0tQsBxZ0FsNOr/j1JUwAQkYQoAFRCIeD46j0EDJ08B0jfKYDwc98FiEg2KABUqmteCSze7oDCcPZ3B8QPAdtY92D1GgMtfHfV7l1Ngf3Udwkikg0KAEnobuvFBdEbAx2tuKCkmYCX1Qyueo2Bzv6iKvetttAO+C5BRLLB+S4gUy55ZDEWfhc4MeIn+xluXMqVc5+qRll14eI9MyHYgaM14icHwc6mu+32xGo570AT0wcOAa9M7J618Xu63z7DdxEikg2aAUjS+HKA2eHIuwMKgzlZDgij7w4wkl0OOPEPZ2L2yjro6I94oad/EUmMAkDSutt6ccQ4LMi1Atk/LAjGXiAUSTPG9uRCgFuRzH1qzCL/biIix6UAUA3dbb2EFuOwINcKQYnO3RnvCYgdAirvCSjuLOD424ru4UvAQ75LEJHsUAColk3zS4QWY4ugtVCYtlMh4GU1YVS2RfDIjJXAG2J/3qeyPei7BBHJDgWAalIIOD5fIcC5c2J9zj+j2T3iuwgRyQ7tAqiFtQ8uJ2A70Bztg9aHY9nYYJlNF++ZibFjrAciisOErGRzW++UP7H+4TczEj5OGoOv46dc0Za+lxeJSN1K3z+EabS5rZeQlWCHwZj6RSuWg8ZANz4TEOW3sWYC20rRpv53uFxeAxZE/J76uMzunvKfU0RkChQAamVzWy9GvLcIGtlvDHREfYvgCM4+TtGFU/qvL9nzpxhpnf4H3J2+KxCRbFEAqKVN80uELt6xwQ2F7J8TECUEOOvkijOmPiiOuMuApnjF1YEw1AyAiCRKPQA+rH1wOYHF6AkgRz0BE5wYaHYVm87onPI91z4wm8D1AQ2VF+jFQb7Qdgo4812IiGSHZgB82NzWS+hWYhyOuBTcSpiTngCj7zi/wTfYNH/t1G9oDsfVGA2+l/FjXyE/1OAvIklTAPBltHs9Xk9AmIOegOBllwNupLntnEiD4dqHVoHrSLS+mnPf812BiGSPAoBPm+aXgBVgAxEfC1sIGrJ/TkDwkt0BN9Lc9skpN/0BXHTfn+HCTf4f4Su6jMLg9yP8ciIiU6IA4Num+SUsjNcYGDRkvzEwcMswu5Tm+dEG/w/d3IAF3yZ9b/w71h66Fz3tuwgRyR41AdaLtfctxwXxGgMDl+3GwDgueuBajNW+y6iYYwNfOKPouwwRyR7NANSLzQt6wcXsCbBs9wREdeEDazMx+AM4d7PvEkQkmzQDUG8u3LMYs+8CJ0b6nNEP5aVc2f5UdQpLiQsf+DDGf5CNcNvH5jPm+S5CRLIpC/9IZsum+SWI0RPgaMFlvCdgMp33d2D8K1n5e216+heR6snGP5RZs3lBL4Qx3h1grZTDbJ8TcDyd93fg2A7WVAed+8lchWEFABGpGgWAerV5QS8uiNcTMBLmqydgdPC/FTjBdykJupMrFv7EdxEikl0KAPVs0/wSLlhB1BDgaIEg2+cEjHth8I+6e6LO2dd8VyAi2aYAUO82zS9RDlZgDESaQSYHIaDz/g7gVoxm37P1CV/P8gp3S7I/lojISykApEHP/BJhjJmALIeA8cE/c0/+ANxE8R3P+y5CRLJNASAtFAJekO3BP4SGL/suQkSyT+cApM0FuxcTuOjnBEA/WPrPCei8vwMsq4M/wC1cueCDvosQkezTDEDa9LSXCC3mTIBL90xA9gd/sLDHdwkikg+aAUirC3YvxsWcCXApnAnovL8Dy/jgDyWuWrDEdxEikg+aAUirnvYSRry3COLSdWLg6OAf50VJ6WJBt+8SRCQ/NAOQdlmfCcjHkz9gd3JV+2LfVYhIfmgGIO162ktYzJ4Aq/OegNwM/kDIRb5LEJF80QxAVlywezGOmDMB1N9MQOeuDizIx+APt3FV+/t9FyEi+aIZgKzoaS9hLmZPAPXVEzA6+Gd/zX/UMBbq6V9Eak4zAFlzwe7FEHMmIKiDmYDOXR2EuXnyB+ihp/2zvosQkfzRDEDW9LSXgHg9ASF+ewLyN/g/TSG43HcRIpJPCgBZ1NNegpjLASE/4DwPywGjg39epv3HuE42veM531WISD5pCSDL0rIckL8nf4Ad9CxYDs58FyIi+aQZgCw7uhxgAxHfR9tCGNZmOaBzVwehuxWs2fc7eGt4PUch+LgGfxHxSTMAeXDB7sWYxZgJsH4agurNBKzZ1YFzeXvyB7OPs2XRN32XISL5pgCQFxfsWo65GGvsro/hwjKunX8w0XpGB//twAmJ3rfeGbezZeFf+S5DRERLAHnRs6gX584i8u4Aa6VxqJTocsALT/55G/x/xUjjP/kuQ0QEFADypae9hHMxtgi6FsoJ9QTkddofRoCPJD6TIiISkwJA3vgMAfkd/AHWs2Xhnb6LEBEZpwCQRz3tJZx9ALPDmDH1ixZGwnNifeeaXR3Adsyao31nBi7sVr7YvjnR/4ciIhVSAMirnkW9hEG0ngDHjcxY+PnI3zU6+OdvzR8A9yBHDv+jtvyJSL3RLoC8O3/3YoJw8i2Cjhs5aeEnKbow0v1fGPzzOO3/JC5YyBfbf+m7EBGRY2kGIO+uaS8RMMmxwfaNCgb/nB3ve9QAAX+twV9E6pUCgEy8HOC4kRmLzqngyT+H0/4MYfYhehY94LsQEZHjUQCQUde0lwiDl+4O0LR/HGWc+weufuf3fBciIjIR9QDIS52/aznOtuP4Tuwn/9C243L55B+C+xhXL/q270JERCajACB/bM09rcx4514N/pEYzp3LlkU3+C5ERGQqFAAkGWt2dWCW12l/w7nVbFm01XchIiJTpQAgldPgr8FfRFJHAUAqo8Ffg7+IpFKD7wIkxc7b1QE5Hvxxq7lag7+IpJMCgMRz3t0dBLnd6mdgq7nmXRr8RSS1tAQg0Z13dweB204+D/kxjHP50rvU7S8iqaYAINGcf+9CsB1M9u6AbBp78n+3nvxFJPUUAGTqVv/4zTSUHwBe7bsUD/TkLyKZoh4AmZrizgJHGm4HZvkuxQMDDf4iki16F4BMze9OWAW2yHcZHhjOVmvwF5Gs0RKATG7tXdM54v4XeI3vUmrMwOnJX0QySTMAMrlB/hkN/iIimaIAIJML3Sd8l1BjhkPT/iKSaQXfBUidW3PXXMrM9V1GDY0++V+jwV9Esk0BQCY24pb5LqGGDGM112nwF5HsUwCQiTkWYL6LqAnDuXO5VoO/iOSDAoBMLLRZOdgrYjg7ly+dqcFfRHJDAUAm5jjFdwlVZpit5loN/iKSLwoAMplX+C6gikaf/DX4i0gOKQDIxIxB3yVUyeiLfTT4i0hO6RwAmZjj/3yXUAUGdi7Xnam3+olIbikAyMSMn/ouIWGjT/7X6clfRPJNAUAmYQ+PvgwvE5ee/EVExigAyGTu8F1AQgznVunJX0RklJoAZWInj9zFwcIzwOt8l1KB0RP+tr7net+FiIjUC80AyMSKS0eA//RdRgUMc6vYqml/EZEXUwCQybnwamDEdxkx6MlfROQ4FABkctcteQL4hu8yIhob/PXkLyLychQAZGqGR9aDPVMHnfxTuQwLNe0vIjIBBQCZmhuWHsLcR6Hu3w1omFvN1iWa9hcRmYACgEzd1jO/T+gu9v+Af9xrbPDXk7+IyGSy/6JXSd6q0mYcnb7LOIaBrdKTv4jI1GgGQKL7yuK1GN2+y3gRA037i4hEoRkAiW9VqQvHOs9VjA3+mvYXEYlCAUAqs6rUhTNfIcDAVrP1vRr8RUQiUgCQyq0qdUHNQ4DhNPiLiMSlACDJqG0I0OAvIlIhBQBJzqofbQZX7d0BIbCKryzRW/1ERCqgACDJ+vQd52NsoTp/t4Yw91G+ujjNLycSEakLCgCSvE/9aDkN7tsYpyR3U/dzwvDvuP699yZ3TxGR/NI5AJK869/bC+HbMfsWZiFmVHANYnwBVz5dg7+ISHI0AyDV9ek7ZhPaZ4APAydF+OTTwE0UCtdw3Xt+U53iRETySwFAamPNPc08P/Q+nC2B4O1gs4BXA9MxnsVxCMfjwG4cP+LgMyW2fbjsuWoRERERERERERERERERERERERERERERERERERERERERERERERERERERERERERGROP4fbtkDGoFLw8cAAAAASUVORK5CYII=;" parent="1" vertex="1">
          <mxGeometry x="370" y="280" width="40" height="40" as="geometry" />
        </mxCell>
      </root>
    </mxGraphModel>
  </diagram>
</mxfile>
